<?xml version="1.0" encoding="utf-8"?>
<!DOCTYPE svg PUBLIC "-//W3C//DTD SVG 1.0//EN" "http://www.w3.org/TR/2001/REC-SVG-20010904/DTD/svg10.dtd">
<svg version="1.0" xmlns="http://www.w3.org/2000/svg" width="512px" height="512px" viewBox="0 0 512 512" preserveAspectRatio="xMidYMid meet">
 <g fill="#ff546c">
  <path d="M92.2 409.7 c-9.6 -11.7 -15.2 -28.2 -15.2 -44.5 0 -9.4 0 -9.4 3.3 -12.3 1.7 -1.6 4 -3.1 4.9 -3.5 1 -0.3 1.8 -0.9 1.8 -1.3 0 -0.5 3.3 -3.2 7.3 -6.2 3.9 -3 9.5 -7.5 12.2 -10.1 2.9 -2.8 5.9 -4.8 7.3 -4.8 l2.2 0 0 23.4 0 23.3 3 5.9 c3.1 6.1 3.6 8 2.2 8.6 -0.4 0.2 -2.1 2.1 -3.7 4.3 -1.7 2.2 -3.3 4.4 -3.7 5 -0.5 0.5 -2.4 3 -4.4 5.5 -2 2.5 -4.8 6.2 -6.2 8.3 -3.4 5.2 -5.8 4.9 -11 -1.6z"/>
  <path d="M157 313.1 l0 -21.9 3 -2.4 c8.2 -6.3 17 -13.4 25.6 -20.5 3.4 -2.9 7.2 -5.3 8.4 -5.3 2.1 0 2.1 0.2 1.8 14.8 l-0.3 14.7 -3.5 3.6 c-1.9 2 -7.3 8.7 -12 14.9 -4.7 6.3 -10 13 -11.7 15.1 -1.8 2 -3.3 4 -3.3 4.4 0 1.4 -4.3 4.5 -6.2 4.5 -1.7 0 -1.8 -1.3 -1.8 -21.9z"/>
 </g>
 <g fill="#ff635d">
  <path d="M77.1 335.9 l-0.1 -28.5 3.7 -1.5 c3.6 -1.3 5.8 -2.4 12.8 -6.2 7.5 -4 18.4 -8.7 20.4 -8.7 2.1 0 2.1 0.3 2.1 19.5 0 10.7 -0.4 19.5 -0.8 19.5 -0.4 0 -2.8 2 -5.2 4.3 -2.5 2.4 -7.6 6.8 -11.5 9.7 -7.3 5.4 -8.2 6.2 -12.7 10.4 -1.6 1.4 -2.8 2.2 -2.8 1.9 0 -0.3 -0.9 0.4 -2 1.7 -1.1 1.3 -2.1 1.9 -2.1 1.4 -0.1 -0.5 -0.5 0.5 -0.9 2.1 -0.4 1.7 -0.8 -9.9 -0.9 -25.6z"/>
  <path d="M157 282.3 l0.1 -13.8 17.7 -8.7 c9.8 -4.9 18.5 -8.8 19.5 -8.8 1.5 0 1.7 1 1.7 7.3 l-0.1 7.2 -7.5 6 c-4.1 3.3 -8.7 7 -10.2 8.3 -1.5 1.2 -4.9 3.9 -7.5 6 -2.7 2 -6.6 5.2 -8.7 7 -2 1.7 -4 3.2 -4.4 3.2 -0.3 0 -0.6 -6.2 -0.6 -13.7z"/>
 </g>
 <g fill="#fb467f">
  <path d="M136.5 434.9 c-12.2 -1.8 -24.7 -7.4 -35.1 -15.8 -6.6 -5.3 -8.6 -8.2 -5.4 -7.6 1.2 0.2 2.5 -0.6 3.5 -2.2 1.2 -1.8 1.3 -2.3 0.4 -1.8 -0.8 0.4 0 -0.5 1.6 -2 1.7 -1.4 2.3 -2.4 1.5 -2 -0.8 0.4 -0.3 -0.3 1.3 -1.5 1.5 -1.2 2.4 -2.7 2.1 -3.2 -0.4 -0.7 -0.2 -0.8 0.4 -0.4 0.6 0.4 1.6 -0.4 2.3 -1.6 0.7 -1.3 1.5 -2.5 1.8 -2.8 2.6 -2.1 7.6 -10.6 7.3 -12.2 -0.4 -1.9 1.5 -0.5 3.5 2.6 2.8 4.3 10.2 9.5 16.1 11.2 2.8 0.9 9.4 1.4 17.4 1.4 12.1 0 12.8 0.1 12.8 2 0 1.1 -0.4 2 -0.8 2 -0.4 0 -1.9 3.2 -3.2 7 -1.3 3.9 -2.7 7 -3.1 7 -0.3 0 -1.4 2.1 -2.4 4.8 -0.9 2.6 -2.3 6.1 -3.1 7.9 -1.8 4 -1.8 4.3 0.6 4.3 1.3 0 2 0.7 2 2 0 1.8 -0.6 2 -7.7 1.9 -4.3 -0.1 -10.5 -0.5 -13.8 -1z"/>
  <path d="M171.1 354.5 c-7.8 -2.4 -14 -10.7 -14.1 -18.6 0 -2.7 0.6 -4.1 2.5 -5.5 1.4 -1 2.5 -2.3 2.5 -2.8 0 -0.5 1.5 -2.5 3.3 -4.5 1.7 -2.1 7 -8.8 11.7 -15.1 4.7 -6.2 9.9 -12.9 11.7 -14.7 1.8 -1.9 3.5 -4.2 3.8 -5.3 0.3 -1 1.2 -2.4 2 -3 1.3 -1.1 1.5 0.9 1.5 15.4 l0 16.6 2.5 0 c2.1 0 2.5 0.5 2.5 2.8 0 1.5 -0.4 3.2 -0.9 3.8 -0.4 0.5 -2.3 4.5 -4.1 8.9 -1.8 4.4 -4.3 10.4 -5.6 13.2 -1.3 2.9 -2.6 6.4 -3 7.8 -0.6 2.3 -1 2.5 -6.3 2.4 -3.1 0 -7.6 -0.6 -10 -1.4z"/>
 </g>
 <g fill="#ff744d">
  <path d="M77.7 310.9 c-0.4 -1.3 -0.7 -13.3 -0.7 -26.6 0 -23.6 0.1 -24.3 2 -24.3 1.1 0 2 0.7 2 1.5 0 1.7 3.5 2.1 4.5 0.5 0.3 -0.5 2.5 -1 4.8 -1 2.3 -0.1 6 -0.7 8.2 -1.5 2.2 -0.8 7 -1.7 10.7 -2.1 l6.8 -0.7 0 19.2 c0 10.6 -0.4 19 -0.8 18.7 -0.4 -0.3 -3.9 1.1 -7.8 3 -3.8 1.9 -7.3 3.4 -7.8 3.4 -0.5 0 -3 1.3 -5.5 2.9 -2.5 1.6 -5.7 3.2 -7.1 3.6 -1.4 0.4 -3.3 1.4 -4.2 2.3 -1 0.8 -1.8 1.1 -1.8 0.7 0 -0.5 -0.6 -0.1 -1.3 1 -1.3 1.7 -1.4 1.7 -2 -0.6z"/>
  <path d="M157 260.1 c0 -7.2 0.1 -13.1 0.3 -13.1 0.5 0 20.6 -4 27.2 -5.5 11.8 -2.5 11.5 -2.6 11.5 5.4 l0 6.9 -18.7 9.3 c-10.2 5.2 -19 9.6 -19.5 9.7 -0.4 0.2 -0.8 -5.5 -0.8 -12.7z"/>
 </g>
 <g fill="#ff8939">
  <path d="M77.6 264.3 c-0.3 -2.1 -0.6 -14.3 -0.6 -27 0 -22.6 0.1 -23.3 2 -23.3 1.3 0 2 0.7 2 1.9 0 1.1 0.4 2.2 0.8 2.5 0.7 0.4 30.8 3.6 33.7 3.6 0.3 0 0.5 9.6 0.4 21.3 0 11.6 -0.3 20.5 -0.6 19.7 -0.3 -0.8 -1 -1.8 -1.6 -2.1 -1.2 -0.8 -8.6 0.1 -11 1.3 -2.2 1.1 -4.1 1.5 -9.3 1.9 -2.1 0.1 -4.5 0.7 -5.1 1.2 -0.7 0.5 -2.8 0.9 -4.8 0.9 -1.9 0 -3.5 0.4 -3.5 0.9 0 0.5 -0.4 0.9 -0.9 0.9 -0.4 0 -1.1 -1.7 -1.5 -3.7z"/>
  <path d="M157 239.5 l0 -14.7 4.3 0.6 c2.3 0.3 9.2 1 15.2 1.5 6.1 0.6 12.9 1.3 15.3 1.6 l4.2 0.6 0 7.5 c0 4.1 -0.4 7.3 -0.8 7 -0.5 -0.3 -4 0.2 -7.8 1 -3.8 0.8 -11.4 2.3 -16.9 3.4 -7.4 1.5 -10.4 2.5 -11.7 4.1 -1.7 2 -1.8 1.6 -1.8 -12.6z"/>
 </g>
 <g fill="#ff9f24">
  <path d="M157 219.3 l0 -15.3 3 0 c1.7 0 3.8 0.4 4.8 1 1.6 0.9 6.9 3 24 9.4 l7.2 2.8 0 8.6 c0 4.8 -0.4 8.1 -0.8 7.4 -0.5 -0.8 -5.6 -1.6 -14.3 -2.3 -7.4 -0.5 -15.1 -1.4 -17.2 -1.8 -3.7 -0.8 -4 -0.7 -5.3 2.3 -1.2 2.8 -1.3 1.6 -1.4 -12.1z"/>
  <path d="M115 229.1 c0 -3.7 -0.8 -3.9 -23.9 -6.1 -5.7 -0.5 -10.7 -0.7 -11.2 -0.5 -2 1.3 -2.9 -8.4 -2.9 -30.2 0 -22.3 0.1 -23.3 1.9 -23.3 1.3 0 2.1 0.9 2.6 3 0.4 1.6 1.3 3 2.1 3 0.8 0 5.4 1.6 10.2 3.6 4.8 2 11.7 4.5 15.5 5.7 l6.7 2.1 0 22.3 c0 12.3 -0.2 22.3 -0.5 22.3 -0.3 0 -0.5 -0.8 -0.5 -1.9z"/>
 </g>
 <g fill="#ffb014">
  <path d="M195 222.7 c0 -1.6 -2.7 -2.9 -19.5 -9.2 -6.6 -2.5 -12.8 -4.9 -13.7 -5.5 -1.9 -1.1 -2.5 -0.4 -3.8 3.8 -0.5 1.7 -0.9 -3.1 -0.9 -12.5 l-0.1 -15.3 3.4 0 c1.9 0 3.6 0.3 3.8 0.8 0.4 0.9 26 17.9 29.3 19.4 2.4 1.1 2.5 1.5 2.5 10.5 0 5.1 -0.2 9.3 -0.5 9.3 -0.3 0 -0.5 -0.6 -0.5 -1.3z"/>
  <path d="M115 195.5 c0 -1.9 -0.4 -3.5 -1 -3.5 -0.5 0 -1 -0.7 -1 -1.5 0 -0.8 -0.3 -1.4 -0.7 -1.3 -0.5 0 -1.5 -0.1 -2.3 -0.5 -0.8 -0.3 -3.5 -1.2 -6 -2.1 -2.5 -0.8 -8.4 -3.1 -13.2 -5 -4.8 -2 -9.4 -3.6 -10.1 -3.6 -2.5 0 -3.7 -7.4 -3.7 -23.1 0 -8.5 0.3 -17.1 0.6 -19.2 0.6 -3.4 0.9 -3.7 3.9 -3.7 2 0 3.5 0.6 3.9 1.5 0.3 0.9 1.4 1.9 2.3 2.3 1.7 0.7 6 3.4 18.6 11.8 3.3 2.1 6.8 4.3 7.8 4.9 1.8 0.9 1.9 2.4 1.9 23.7 0 12.6 -0.2 22.8 -0.5 22.8 -0.3 0 -0.5 -1.6 -0.5 -3.5z"/>
 </g>
 <g fill="#ffbf06">
  <path d="M195.2 213.2 c-0.2 -2.6 -1.6 -4.3 -5.2 -6.2 -4 -2.1 -28.4 -18.3 -29.1 -19.3 -0.9 -1.3 -2.2 1.2 -3 5.8 -0.4 2.5 -0.7 -0.6 -0.8 -8.4 -0.1 -10.6 0.2 -13.1 1.9 -16.7 4.4 -9 3.6 -9.3 22.5 9.7 11.3 11.3 16.6 17.2 15.8 17.7 -0.8 0.5 -1.3 4.2 -1.6 10.2 -0.1 5.2 -0.4 8.5 -0.5 7.2z"/>
  <path d="M115.2 166.9 c-0.1 -3.1 -0.9 -7 -1.7 -8.5 -0.8 -1.6 -1.5 -2.5 -1.5 -2 0 0.6 -1.2 -0.1 -2.7 -1.5 -1.6 -1.4 -4.6 -3.6 -6.8 -5 -2.2 -1.4 -6.7 -4.3 -10 -6.5 -3.3 -2.1 -6.8 -4.2 -7.8 -4.6 -0.9 -0.4 -2 -1.4 -2.3 -2.3 -0.5 -1.2 -1 -1.3 -2 -0.4 -2.4 2 -2.8 -1.8 -1 -8.4 2.4 -8.7 8.8 -20.5 14.6 -26.8 l4.9 -5.4 13.7 13.7 13.7 13.6 -3.3 3.8 c-5.8 6.6 -6.4 9.2 -7 28.4 -0.4 9.6 -0.7 15 -0.8 11.9z"/>
 </g>
 <g fill="#e94798">
  <path d="M152.2 435 c-3.4 -0.8 -5.4 -2 -3.3 -2 0.6 0 1.1 -0.6 1 -1.2 -0.2 -0.7 0.7 -3.3 1.8 -5.8 1.1 -2.5 2.8 -6.5 3.8 -9 0.9 -2.5 2.1 -4.7 2.6 -5 0.5 -0.3 1 -1.5 1.2 -2.5 0.2 -1.1 0.9 -3 1.5 -4.3 0.7 -1.2 1 -2.7 0.7 -3.2 -0.3 -0.6 -0.1 -1 0.5 -1 0.7 0 1 -0.6 0.7 -1.4 -0.9 -2.2 2.3 -2.6 22.7 -2.6 l18.9 0 -0.7 3.3 c-0.4 1.7 -1.1 6 -1.6 9.3 -0.5 3.4 -1.4 7.4 -2 8.8 -0.5 1.5 -1.4 5.2 -1.8 8.1 -0.7 4.4 -0.6 5.5 0.5 5.5 0.7 0 1.3 0.9 1.3 2 0 1.9 -0.6 2 -22.2 1.9 -12.3 -0.1 -23.8 -0.5 -25.6 -0.9z"/>
  <path d="M183.1 355.1 c-0.8 -0.5 -0.9 -1.1 -0.3 -1.5 0.5 -0.3 1.3 -1.7 1.6 -3.1 0.4 -1.4 1.7 -4.9 3 -7.8 1.4 -2.9 3.3 -7.5 4.4 -10.2 1.1 -2.8 2.8 -6.8 3.8 -9 1 -2.2 1.7 -4.6 1.5 -5.2 -0.1 -1 2.6 -1.3 10.9 -1.3 l11 0 0 3.6 c0 1.9 -1.2 9 -2.6 15.7 -1.4 6.7 -2.5 13.9 -2.5 16 l0 3.7 -14.7 0 c-8.1 0 -15.3 -0.4 -16.1 -0.9z"/>
 </g>
 <g fill="#dc4aa9">
  <path d="M194.5 434.6 c-1.8 -0.7 -2.5 -1.5 -1.8 -1.9 0.7 -0.4 1.5 -2.9 1.8 -5.5 0.4 -2.6 1.1 -6.5 1.7 -8.7 0.6 -2.2 1.2 -4.9 1.5 -6 0.6 -2.3 1.3 -7.8 1.6 -11.5 0.1 -1.4 0.7 -2.8 1.2 -3.2 0.6 -0.4 9.1 -0.8 19 -0.8 l18 0 -0.3 17.5 c-0.3 12.3 -0.1 17.5 0.7 17.5 0.6 0 1.1 0.9 1.1 2 0 1.9 -0.7 2 -20.7 2 -14.5 -0.1 -21.7 -0.5 -23.8 -1.4z"/>
  <path d="M209.8 355.3 c-1.3 -0.3 -1.5 -0.9 -0.8 -2.1 1 -1.9 7 -31 7 -34.2 0 -1.9 0.6 -2 10.5 -2 l10.5 0 0 17.5 c0 11 0.4 17.5 1 17.5 0.6 0 1 0.9 1 2 0 1.9 -0.6 2 -13.7 1.9 -7.6 -0.1 -14.6 -0.3 -15.5 -0.6z"/>
 </g>
 <g fill="#c94ec2">
  <path d="M233.2 435.3 c-0.9 -0.4 -1 -0.8 -0.2 -1.8 0.7 -0.9 1 -7.1 0.8 -18.4 -0.2 -13.5 0 -17.2 1 -17.6 0.8 -0.3 10.2 -0.5 21.1 -0.5 l19.6 0 3.3 12.8 c4.2 16.4 4.6 18.5 3.8 22.7 l-0.7 3.6 -23.7 -0.2 c-13 -0.1 -24.3 -0.3 -25 -0.6z"/>
  <path d="M234 355 c-1.4 -0.4 -1.9 -0.8 -1.2 -0.9 1.1 -0.1 1.3 -3.9 1 -18.6 l-0.3 -18.5 11.5 0 11.6 0 1.8 7.8 c1 4.2 2.5 9.7 3.2 12.2 0.8 2.4 1.7 6.8 2.1 9.7 0.3 2.9 1 5.3 1.4 5.3 0.5 0 0.9 0.9 0.9 2 0 1.9 -0.6 2 -14.7 1.9 -8.2 -0.1 -15.9 -0.5 -17.3 -0.9z"/>
  <path d="M237 264 c0 -11.1 0.1 -12 1.9 -12 1.5 0 2.2 1.2 3.1 5.3 0.6 2.8 1.5 6.3 2 7.7 0.5 1.4 1.2 4.4 1.5 6.8 l0.7 4.2 -4.6 0 -4.6 0 0 -12z"/>
 </g>
 <g fill="#b851d8">
  <path d="M278.8 435.5 c-0.3 -0.3 -0.1 -2.4 0.5 -4.6 0.8 -3.4 0.7 -4.2 -0.8 -5.3 -1 -0.7 -1.5 -1.7 -1.2 -2.3 0.3 -0.5 -0.1 -3.6 -1 -6.9 -0.8 -3.2 -1.6 -6.3 -1.7 -6.9 -0.1 -0.5 -0.5 -1.6 -1 -2.3 -0.4 -0.7 -0.5 -1.6 -0.2 -1.9 0.3 -0.3 0.1 -1.2 -0.4 -1.8 -0.6 -0.7 -0.9 -2.3 -0.7 -3.6 l0.4 -2.4 19.9 -0.3 20 -0.2 4.6 9.7 c7.3 15.5 9.8 21.1 9.8 22.2 0 0.6 0.5 1.1 1 1.1 0.6 0 1 1.4 1 3 l0 3 -24.8 0 c-13.7 0 -25.1 -0.2 -25.4 -0.5z"/>
  <path d="M262 355.2 c-0.9 -0.4 -1.6 -2.2 -1.7 -4.2 -0.2 -4.2 -0.7 -7.1 -2.1 -12.5 -2.8 -10.7 -4.4 -17 -4.8 -19.1 l-0.4 -2.4 11.5 0 c11.5 0 11.6 0 12.5 2.5 0.6 1.5 2.1 5.1 3.5 8 1.4 3 3.7 8 5.1 11.1 4.6 10 6.4 14.5 6.4 16 0 1.1 -2.6 1.4 -14.2 1.3 -7.9 0 -15 -0.3 -15.8 -0.7z"/>
  <path d="M242.5 274.8 c-0.2 -0.7 -0.6 -2.4 -0.8 -3.8 -0.3 -1.4 -1.4 -6.1 -2.6 -10.4 -1.2 -4.4 -2.1 -10.1 -2.1 -12.8 0 -4.5 0.2 -4.8 2.5 -4.8 1.5 0 2.8 0.7 3.2 1.8 0.3 0.9 3.2 7.6 6.5 14.9 3.2 7.2 5.8 13.8 5.8 14.7 0 1.3 -1.2 1.6 -6 1.6 -4 0 -6.2 -0.4 -6.5 -1.2z"/>
 </g>
 <g fill="#aa54eb">
  <path d="M323 435.1 c0 -0.6 0.8 -1.1 1.8 -1.2 1 0 1.2 -0.3 0.5 -0.6 -0.7 -0.2 -1.3 -0.9 -1.3 -1.4 0 -1.1 -2.1 -6 -9 -20.4 -2.6 -5.5 -5 -11 -5.4 -12.2 l-0.7 -2.3 23.5 0 23.5 0 4.1 5.8 c4.2 6 5.8 8.2 12.6 17.2 2.2 3.1 4.4 6.8 4.8 8.3 0.4 1.8 1.3 2.7 2.6 2.7 2.7 0 2.5 2.6 -0.2 3.5 -4.1 1.3 -56.8 1.9 -56.8 0.6z"/>
  <path d="M287 355 c-1.6 -0.5 -1.9 -0.8 -0.8 -0.9 2 -0.1 1.9 -0.6 -3.2 -11.6 -1.8 -3.8 -4.3 -9.5 -5.7 -12.5 -1.4 -3 -3.3 -7.2 -4.3 -9.2 l-1.7 -3.8 13.2 0 13.3 0 10 13.8 c10 13.8 14.2 20.8 14.2 23.7 0 1.3 -2.2 1.5 -16.2 1.4 -9 -0.1 -17.4 -0.5 -18.8 -0.9z"/>
  <path d="M251.2 275.3 c-0.6 -0.2 -1 -0.8 -0.7 -1.2 0.2 -0.5 -2 -6.2 -4.9 -12.7 -2.9 -6.5 -5.6 -12.7 -5.9 -13.6 -0.4 -1 -1.1 -1.8 -1.7 -1.8 -0.5 0 -1 -1.6 -1 -3.6 0 -6.7 3.4 -4.1 14.2 10.6 9.7 13.2 12.8 18.3 12.8 21.5 0 1.2 -1.2 1.5 -5.7 1.4 -3.2 0 -6.4 -0.3 -7.1 -0.6z"/>
 </g>
 <g fill="#995bfe">
  <path d="M374.2 431.5 c-0.1 -1.3 -2.1 -5.1 -4.5 -8.2 -7 -9.4 -8.5 -11.5 -12.9 -17.8 -2.3 -3.3 -4.5 -6.1 -5 -6.3 -2.9 -1.2 0.7 -2 10.5 -2.4 8.8 -0.3 12.3 -0.9 16.3 -2.7 10.1 -4.4 17.1 -14.6 18.2 -26.3 0.5 -5.7 0.6 -5.9 3.1 -5.6 1.6 0.2 3 1.2 3.6 2.6 0.5 1.2 1.6 2.2 2.3 2.2 0.7 0 2.3 1 3.5 2.3 1.2 1.3 4 3.6 6.2 5.2 2.2 1.6 6 4.9 8.5 7.2 2.5 2.5 5.4 4.3 6.7 4.3 l2.3 0 -2.1 5.3 c-3.7 9.4 -8.2 16.1 -15.8 23.7 -4.2 4.1 -10.1 9 -13.3 10.8 -7.3 4.3 -18.3 8.2 -23.3 8.2 -3.6 0 -4.1 -0.3 -4.3 -2.5z"/>
  <path d="M317 355 c-1.7 -0.5 -1.9 -0.8 -0.7 -0.9 1.7 -0.1 1.7 -0.3 0.1 -3.3 -2.9 -5.6 -22.5 -32.3 -24.2 -33 -1 -0.4 10.2 -0.7 24.8 -0.7 l26.5 -0.1 5 4.5 c2.8 2.4 5.6 4.5 6.3 4.5 0.9 0 1.2 3.7 1.2 15 l0 15 -18.2 -0.1 c-10.1 -0.1 -19.4 -0.5 -20.8 -0.9z"/>
  <path d="M260 273.4 c-1 -2.5 -17.1 -25.4 -21.2 -30 -2.7 -3.1 -2.4 -6.4 0.7 -6.4 2.5 0 9.8 5.3 30.8 22.4 5.5 4.5 10.8 8.7 11.8 9.5 1.1 0.8 1.9 2.6 1.9 4.2 l0 2.9 -11.5 0 c-11.5 0 -11.6 0 -12.5 -2.6z"/>
 </g>
 <g fill="#8f69ff">
  <path d="M429 392.4 c0.6 -1.4 1 -2.6 1 -2.8 0 -0.1 -1 -0.2 -2.1 -0.3 -1.2 -0.1 -3.1 -1.1 -4.4 -2.3 -1.2 -1.1 -2.6 -1.7 -3.1 -1.3 -0.5 0.5 -0.6 0.4 -0.2 -0.1 0.7 -0.8 -2 -4.4 -3.4 -4.5 -0.5 -0.1 -1.6 -0.9 -2.6 -1.8 -3.3 -3.3 -8.6 -7.3 -9.5 -7.3 -0.4 0 -0.5 -0.5 -0.2 -1 0.4 -0.6 0.3 -1 -0.2 -0.9 -2 0.4 -3.3 -0.2 -3.3 -1.5 0 -0.7 -0.6 -1.9 -1.4 -2.5 -1.2 -1 -1.5 -0.8 -1.9 1.1 -0.2 1.3 -0.5 -12.9 -0.6 -31.4 l-0.1 -33.8 3 0 c2.6 0 15.5 5.2 27.2 11 l3.7 1.8 0.7 -3.4 c0.4 -2.4 1.2 -3.4 2.5 -3.4 1.8 0 1.9 1.2 1.9 29.8 0 16.3 -0.5 32.9 -1 36.8 -1 7.7 -4.8 20.4 -6.1 20.4 -0.5 0 -0.4 -1.2 0.1 -2.6z"/>
  <path d="M355 338.1 c0 -4.9 -1.4 -8.8 -3.3 -9.3 -0.8 -0.1 -3.8 -2.3 -6.7 -4.8 -4 -3.4 -6.6 -4.8 -10.9 -5.6 -5.3 -1.1 -4.9 -1.2 8.2 -1.3 l13.7 -0.1 0 12.5 c0 6.9 -0.2 12.5 -0.5 12.5 -0.3 0 -0.5 -1.8 -0.5 -3.9z"/>
  <path d="M280.6 274.9 c0.4 -0.7 -0.2 -1.9 -1.3 -2.8 -8.6 -7 -33.7 -27 -37.5 -29.9 -2.6 -2.1 -4.7 -4 -4.8 -4.4 0 -0.5 2.4 -0.8 5.3 -0.8 3.8 0 7.6 1 13.3 3.4 4.3 1.8 12 5.1 16.9 7.1 5 2.1 14 5.9 20 8.5 16.2 6.9 25.7 10.8 28.5 11.6 3.4 0.9 5 2.8 5 5.8 l0 2.6 -23.1 0 c-16.9 0 -22.8 -0.3 -22.3 -1.1z"/>
 </g>
 <g fill="#827dff">
  <path d="M430.5 318.5 c-1.6 -0.6 -4.6 -1.8 -6.5 -2.7 -16 -7.3 -20.1 -8.9 -21.1 -8.2 -0.7 0.4 -0.9 0.3 -0.6 -0.3 1 -1.6 -2.3 -2.5 -3.9 -1.2 -1.2 1 -1.4 -4.3 -1.4 -33.6 l0 -34.8 17.5 0.5 17.5 0.5 0 -2.9 c0 -2.1 0.5 -2.8 2 -2.8 2 0 2 0.7 2 38.3 -0.1 26.3 -0.5 39.8 -1.3 43.2 -1.2 5 -1.2 5 -4.2 4z"/>
  <path d="M319.8 275.3 c1.7 -0.2 3.2 -0.7 3.2 -0.9 0 -1.1 -2.9 -3.4 -4.7 -3.7 -1.9 -0.3 -5.6 -1.8 -28.8 -11.7 -6 -2.6 -15 -6.4 -20 -8.5 -4.9 -2 -13.5 -5.7 -19 -8 -5.5 -2.4 -10.9 -4.5 -12 -4.8 -1.1 -0.2 24.9 -0.5 57.8 -0.6 l59.7 -0.1 0 19.5 0 19.5 -19.7 -0.2 c-10.9 0 -18.3 -0.3 -16.5 -0.5z"/>
 </g>
 <g fill="#54fcb6">
  <path d="M178.6 181.1 c-18.7 -18.7 -18.4 -18.1 -10.2 -22 3.4 -1.7 6.2 -2.1 13.8 -2.1 l9.5 0 7.4 12.3 c4 6.7 8.2 13.8 9.2 15.7 1.1 1.9 2.3 3.9 2.8 4.5 0.5 0.5 0.9 2.2 0.9 3.7 l0 2.8 -7.9 0 c-4.4 0 -8.1 0.4 -8.3 1 -0.2 0.6 -7.9 -6.6 -17.2 -15.9z"/>
  <path d="M109.6 112.1 l-13.8 -13.8 5.4 -4.7 c9.9 -8.8 29.1 -16.5 41.1 -16.6 3 0 3.7 0.4 3.7 2 0 1.1 0.3 2 0.8 2 0.4 0 1.3 1.4 2 3 0.8 1.7 1.9 3.6 2.5 4.3 0.7 0.7 2.8 4.3 4.7 8 1.9 3.7 3.8 6.7 4.3 6.7 0.4 0 0.7 0.7 0.7 1.5 0 0.8 0.9 2.4 2 3.5 1.1 1.1 2 3.3 2 5 l0 3 -12.3 0 c-14.2 0 -19.4 1.3 -25.4 6.5 l-4 3.4 -13.7 -13.8z"/>
 </g>
 <g fill="#7396ff">
  <path d="M355 243.1 c0 -1.7 -0.3 -3.2 -0.8 -3.5 -0.4 -0.2 -20.5 -0.7 -44.7 -1.1 -24.2 -0.4 -44.2 -0.9 -44.4 -1.1 -0.2 -0.2 20.1 -0.4 45.2 -0.4 l45.7 0 0 4.5 c0 2.5 -0.2 4.5 -0.5 4.5 -0.3 0 -0.5 -1.3 -0.5 -2.9z"/>
  <path d="M397 210.1 l0 -33 5.8 -1.6 c3.1 -0.9 6.9 -2.3 8.4 -3 1.4 -0.8 3.9 -1.5 5.5 -1.5 1.5 0 3.6 -0.7 4.6 -1.5 1.1 -0.7 3.6 -1.6 5.7 -2 2.1 -0.4 4.1 -1.3 4.4 -2.1 0.3 -0.8 1.5 -1.4 2.6 -1.4 2 0 2 0.5 2 34.3 0 18.8 -0.3 36.5 -0.6 39.3 l-0.6 5.2 -6 -0.4 c-3.3 -0.2 -6.3 -0.5 -6.5 -0.8 -0.3 -0.3 -1.5 -0.1 -2.7 0.4 -1.3 0.4 -2.9 0.4 -3.6 0 -0.8 -0.5 -1.9 -0.5 -2.6 0.1 -0.7 0.6 -1.4 0.6 -1.7 0.2 -0.6 -1 -11.9 -0.9 -13.5 0.1 -0.9 0.5 -1.2 -7.2 -1.2 -32.3z"/>
 </g>
 <g fill="#67aaff">
  <path d="M289 193.5 c0 -3.3 1.7 -5 11 -11.2 4.1 -2.8 9.2 -6.4 11.2 -7.9 2 -1.6 7.8 -5.8 12.7 -9.4 5 -3.6 9.1 -6.8 9.1 -7.2 0 -0.5 5.2 -0.8 11.5 -0.8 l11.5 0 0 19.5 0 19.5 -33.5 0 -33.5 0 0 -2.5z"/>
  <path d="M396.8 161.1 c-0.3 -25.2 -0.8 -27 -8.4 -35.9 -3.3 -3.9 -3.8 -6.2 -1.2 -6.2 0.6 0 2.7 -1.2 4.7 -2.8 6.5 -5 9.5 -7 14.9 -10.2 2.8 -1.7 5.7 -4 6.2 -5.1 0.6 -1 1.8 -1.9 2.8 -1.9 4 0.1 14.4 18 17.7 30.5 1 3.6 1.9 12.1 2.2 21 0.6 17.5 0 19.8 -5.7 20.3 -1.9 0.1 -4.4 0.9 -5.5 1.6 -1.2 0.8 -3.8 1.6 -5.8 1.9 -2.1 0.3 -4.3 0.9 -5 1.5 -0.6 0.5 -2.5 1.3 -4.2 1.7 -1.6 0.5 -3.3 0.9 -3.7 1 -0.5 0.2 -1.5 0.3 -2.3 0.4 -0.9 0 -2.7 1.2 -4 2.5 l-2.3 2.3 -0.4 -22.6z"/>
 </g>
 <g fill="#4af9d2">
  <path d="M207.9 195.1 c1.1 -0.7 1.1 -1.2 -0.2 -3.2 -0.8 -1.3 -2.6 -4.2 -3.9 -6.5 -11.8 -20.8 -15.5 -26.4 -17.8 -27.3 -1.8 -0.7 2.3 -1 14 -1 l16.5 -0.1 4.3 16.3 c2.3 8.9 4.2 17.7 4.2 19.5 l0 3.2 -9.2 0 c-5.6 0 -8.8 -0.4 -7.9 -0.9z"/>
  <path d="M159.3 115.3 c2.5 -0.4 4 -3.3 1.7 -3.3 -0.6 0 -1.6 -1.2 -2.3 -2.7 -0.6 -1.6 -1.4 -3 -1.7 -3.3 -1.2 -1 -7.5 -12.5 -7.2 -13.2 0.1 -0.5 -0.1 -0.8 -0.6 -0.8 -0.4 0 -1.6 -1.7 -2.7 -3.7 -1.1 -2.1 -2.8 -4.7 -3.8 -5.7 -1.3 -1.5 -1.4 -2.2 -0.5 -2.8 1 -0.5 0.8 -0.8 -0.4 -0.8 -0.9 0 -2 -0.4 -2.3 -1 -0.4 -0.7 9.1 -1 27.7 -1 l28.4 0 1.6 6.8 c1 3.7 3.1 11.7 4.7 17.7 1.7 6.1 3.1 11.8 3.1 12.8 0 1.6 -1.8 1.7 -24.2 1.6 -13.4 -0.1 -23.1 -0.4 -21.5 -0.6z"/>
 </g>
 <g fill="#5bbdff">
  <path d="M263 192.3 c0.1 -3.2 1.5 -5.7 9.1 -15.8 5 -6.6 10.3 -13.7 11.7 -15.7 l2.7 -3.7 34.8 -0.1 c32.4 0 34.7 0.1 34.6 1.8 0 1 -0.3 1.2 -0.6 0.5 -1.1 -2.8 -16.8 -0.9 -19.8 2.3 -0.9 0.9 -7 5.5 -18.6 13.8 -1.6 1.2 -7 5 -12.1 8.5 -5.1 3.5 -10.1 7.3 -11.1 8.3 -1.9 2 -1.6 2.3 3.3 3.1 1.4 0.2 -5.7 0.5 -15.7 0.6 l-18.3 0.1 0 -3.7z"/>
  <path d="M387.6 124.1 c-0.9 -1 -4 -3.1 -6.9 -4.7 l-5.2 -2.9 -25.5 -0.3 c-18.2 -0.2 -25.7 -0.7 -26.2 -1.5 -1.7 -2.6 -0.8 -7.5 1.7 -9.8 1.4 -1.3 3.5 -4 4.8 -5.9 1.2 -1.9 2.9 -4.4 3.9 -5.5 0.9 -1.1 2.6 -3.1 3.7 -4.4 1.2 -1.3 2.1 -2.8 2.1 -3.2 0 -0.5 1 -1.7 2.2 -2.9 l2.2 -2 -2.7 0 c-2 0 -2.7 -0.5 -2.7 -2 0 -1.9 0.7 -2 17.8 -2 14.6 0 19.3 0.4 25.8 2 14.4 3.6 28.5 12.3 36.6 22.5 1.7 2.2 2.6 3.5 1.9 2.8 -0.8 -0.6 -2 -0.9 -2.9 -0.6 -1.1 0.5 -1.3 0.2 -0.8 -0.8 0.4 -0.8 -0.1 -0.4 -1.1 0.9 -1 1.2 -4.1 3.7 -6.9 5.5 -8.7 5.4 -12.8 8.3 -15.7 11.1 -1.6 1.4 -3.2 2.4 -3.7 2.1 -0.5 -0.3 -1.2 0 -1.6 0.6 -0.4 0.8 -0.3 0.9 0.4 0.5 0.7 -0.4 1.2 -0.1 1.2 0.8 0 2 -0.3 2 -2.4 -0.3z"/>
 </g>
 <g fill="#4fcfff">
  <path d="M247 192.8 c0 -1.7 2.1 -8.3 4.6 -14.7 2.5 -6.4 5.3 -13.6 6.3 -16.1 l1.7 -4.5 23 -0.1 c16.3 -0.1 20.7 0.1 15.4 0.6 -6.2 0.7 -7.7 1.2 -9 3.1 -0.8 1.3 -2.6 3.7 -4 5.4 -6.4 7.5 -19 25.4 -19 26.8 0 0.8 0.8 1.8 1.8 2 0.9 0.3 -3.4 0.5 -9.5 0.6 l-11.3 0.1 0 -3.2z"/>
  <path d="M280 110.9 c0 -4.9 3.1 -15.8 5.3 -18.7 0.6 -0.7 1.8 -3.5 2.7 -6.3 1.4 -3.9 1.4 -4.9 0.3 -4.9 -0.7 0 -1.3 -0.9 -1.3 -2.1 0 -2.1 0.1 -2.1 30.3 -1.7 19.4 0.3 31.1 0.8 32.7 1.5 1.9 0.9 2 1.2 0.7 1.2 -1 0.1 -2.2 1.2 -2.7 2.5 -0.5 1.3 -1.5 2.8 -2.3 3.3 -0.8 0.4 -2 1.9 -2.6 3.1 -0.7 1.3 -2.1 3.3 -3.1 4.5 -1 1.2 -2.8 3.3 -3.9 4.6 -1.2 1.3 -2.1 2.7 -2.1 3.1 0 0.4 -1.8 2.7 -3.9 5.1 -5.9 6.3 -4.4 8 7.9 9.2 1.9 0.2 -10.3 0.5 -27.2 0.5 l-30.8 0.2 0 -5.1z"/>
 </g>
 <g fill="#45dfff">
  <path d="M233 194.3 c0 -1 0.5 -9.8 1.2 -19.5 l1.1 -17.8 20.1 0.1 c11.1 0.1 18.8 0.4 17.1 0.6 -9 1.1 -9.2 1.2 -11 5.6 -0.9 2.3 -1.9 4.9 -2.1 5.7 -0.2 0.8 -2.4 6.4 -4.8 12.4 -2.5 6 -4.2 11.4 -3.9 11.9 0.3 0.4 1.5 1.2 2.7 1.7 1.4 0.6 -1.8 0.9 -9.1 0.9 -10.1 0.1 -11.3 -0.1 -11.3 -1.6z"/>
  <path d="M239.5 98.5 c0.7 -15.8 0.6 -17.5 -0.9 -17.5 -1 0 -1.6 -0.8 -1.6 -2.1 0 -2 0.2 -2 28.3 -1.7 15.5 0.2 28.8 0.7 29.5 1.1 1 0.7 1 1.2 -0.4 2.1 -0.9 0.7 -1.4 1.8 -1 2.4 0.3 0.6 0.2 1.3 -0.4 1.7 -0.6 0.4 -0.8 1.1 -0.5 1.6 0.4 0.5 0.2 0.9 -0.4 0.9 -0.5 0 -1.3 1.5 -1.6 3.3 -0.4 1.7 -1.3 3.9 -2.1 4.8 -0.7 0.8 -1.5 2.4 -1.7 3.5 -0.2 1 -1.1 3.6 -2 5.7 -1.8 4.2 -1.9 8.3 -0.2 9.7 0.6 0.5 4 1.1 7.5 1.3 3.6 0.2 -6.9 0.4 -23.4 0.5 l-29.8 0.2 0.7 -17.5z"/>
 </g>
 <g fill="#3ef1f7">
  <path d="M222 194.1 c0 -2.2 -7.5 -31.4 -9 -34.8 l-1 -2.3 18.3 0.2 c10 0.1 16.3 0.3 14 0.5 -2.3 0.2 -4.6 0.9 -5.1 1.6 -1.1 1.5 -3.4 33.9 -2.4 34.8 0.4 0.4 1.6 0.9 2.7 1.2 1.1 0.3 -2.4 0.5 -7.7 0.6 -9.1 0.1 -9.8 0 -9.8 -1.8z"/>
  <path d="M200.6 115.4 c1.1 -0.5 -0.5 -7.5 -6.2 -27.4 -0.9 -3 -1.7 -6.3 -1.8 -7.3 -0.1 -1 -0.9 -2.3 -1.7 -2.8 -1.6 -1 44.9 -1.3 49.8 -0.3 l3 0.6 -0.6 11.6 c-0.3 6.5 -0.6 14.6 -0.6 18.2 l0 6.5 7 0.6 c3.9 0.3 -5.8 0.6 -21.5 0.6 -15.7 0.1 -28 -0.1 -27.4 -0.3z"/>
 </g>
</svg>